<?xml version="1.0" encoding="UTF-8" standalone="no"?>
<!-- Created with Keyshape -->
<svg xmlns="http://www.w3.org/2000/svg" xmlns:xlink="http://www.w3.org/1999/xlink" width="100%" height="100%" viewBox="0 0 313 106" clip-rule="evenodd" fill-rule="evenodd" stroke-linecap="round" stroke-linejoin="round" stroke-miterlimit="1.5" style="white-space: preserve-spaces; background: rgba(0,0,0,0.00);">
    <style>
@keyframes On_o { 0% { opacity: 0; } 16.6667% { opacity: 1; } 33.3333% { opacity: 0; } 50% { opacity: 0; } 66.6667% { opacity: 1; } 83.3333% { opacity: 0; } 100% { opacity: 0; } }
@keyframes a0_o { 0% { opacity: 0.3; } 16.6667% { opacity: 1; } 33.3333% { opacity: 0.3; } 50% { opacity: 0.3; } 66.6667% { opacity: 1; } 83.3333% { opacity: 0.3; } 100% { opacity: 0.3; } }
@keyframes left_f { 0% { fill: #ffcc47; } 16.6667% { fill: #000000; } 33.3333% { fill: #ffcc47; } 50% { fill: #ffcc47; } 66.6667% { fill: #000000; } 83.3333% { fill: #ffcc47; } 100% { fill: #ffcc47; } }
@keyframes a1_o { 0% { opacity: 1; } 16.6667% { opacity: 0.3; } 33.3333% { opacity: 0.3; } 50% { opacity: 1; } 66.6667% { opacity: 0.3; } 83.3333% { opacity: 0.3; } 100% { opacity: 1; } }
@keyframes Right_f { 0% { fill: #000000; } 16.6667% { fill: #ffcc47; } 33.3333% { fill: #ffcc47; } 50% { fill: #000000; } 66.6667% { fill: #ffcc47; } 83.3333% { fill: #ffcc47; } 100% { fill: #000000; } }
@keyframes pulse_t { 0% { transform: translate(36px,36px) scale(1,1); animation-timing-function: cubic-bezier(0,0,1,1); } 16.6666% { transform: translate(36px,36px) scale(1,1); animation-timing-function: cubic-bezier(0,0,1,1); } 50% { transform: translate(36px,36px) scale(8,8); animation-timing-function: steps(1); } 50.1041% { transform: translate(36px,36px) scale(1,1); animation-timing-function: cubic-bezier(0,0,1,1); } 66.6666% { transform: translate(36px,36px) scale(1,1); animation-timing-function: cubic-bezier(0,0,1,1); } 100% { transform: translate(36px,36px) scale(8,8); } }
@keyframes pulse_o { 0% { opacity: 0; } 16.6667% { opacity: 0; } 33.3333% { opacity: 0.5; animation-timing-function: cubic-bezier(0,0,1,1); } 50% { opacity: 0; animation-timing-function: steps(1); } 50.1042% { opacity: 0; } 66.6667% { opacity: 0; } 83.3333% { opacity: 0.5; animation-timing-function: cubic-bezier(0,0,1,1); } 100% { opacity: 0; } }
@keyframes pulse_sw { 0% { stroke-width: 3px; animation-timing-function: cubic-bezier(0,0,1,1); } 16.6667% { stroke-width: 3px; animation-timing-function: cubic-bezier(0,0,1,1); } 50% { stroke-width: 0px; animation-timing-function: steps(1); } 50.1042% { stroke-width: 3px; animation-timing-function: cubic-bezier(0,0,1,1); } 66.6667% { stroke-width: 3px; animation-timing-function: cubic-bezier(0,0,1,1); } 100% { stroke-width: 0px; } }
@keyframes pulse-2_t { 0% { transform: translate(210px,70px) scale(1,1); animation-timing-function: cubic-bezier(0,0,1,1); } 16.6666% { transform: translate(210px,70px) scale(1,1); animation-timing-function: cubic-bezier(0,0,1,1); } 50% { transform: translate(210px,70px) scale(8,8); animation-timing-function: steps(1); } 50.1041% { transform: translate(210px,70px) scale(1,1); animation-timing-function: cubic-bezier(0,0,1,1); } 66.6666% { transform: translate(210px,70px) scale(1,1); animation-timing-function: cubic-bezier(0,0,1,1); } 100% { transform: translate(210px,70px) scale(8,8); } }
@keyframes pulse-2_o { 0% { opacity: 0; } 16.6667% { opacity: 0; } 29.1667% { opacity: 0.5; animation-timing-function: cubic-bezier(0,0,1,1); } 50% { opacity: 0; animation-timing-function: steps(1); } 50.1042% { opacity: 0; } 66.6667% { opacity: 0; } 79.1667% { opacity: 0.5; animation-timing-function: cubic-bezier(0,0,1,1); } 100% { opacity: 0; } }
@keyframes pulse-2_sw { 0% { stroke-width: 3px; animation-timing-function: cubic-bezier(0,0,1,1); } 16.6667% { stroke-width: 3px; animation-timing-function: cubic-bezier(0,0,1,1); } 50% { stroke-width: 0px; animation-timing-function: steps(1); } 50.1042% { stroke-width: 3px; animation-timing-function: cubic-bezier(0,0,1,1); } 66.6667% { stroke-width: 3px; animation-timing-function: cubic-bezier(0,0,1,1); } 100% { stroke-width: 0px; } }
@keyframes pulse-3_t { 0% { transform: translate(277px,70px) scale(1,1); animation-timing-function: cubic-bezier(0,0,1,1); } 33.3333% { transform: translate(277px,70px) scale(8,8); } 50% { transform: translate(277px,70px) scale(8,8); animation-timing-function: steps(1); } 50.1041% { transform: translate(277px,70px) scale(1,1); animation-timing-function: cubic-bezier(0,0,1,1); } 83.3333% { transform: translate(277px,70px) scale(8,8); } 100% { transform: translate(277px,70px) scale(8,8); } }
@keyframes pulse-3_o { 0% { opacity: 0; } 12.5% { opacity: 0.5; animation-timing-function: cubic-bezier(0,0,1,1); } 33.3333% { opacity: 0; } 50% { opacity: 0; animation-timing-function: steps(1); } 50.1042% { opacity: 0; } 62.5% { opacity: 0.5; animation-timing-function: cubic-bezier(0,0,1,1); } 83.3333% { opacity: 0; } 100% { opacity: 0; } }
@keyframes pulse-3_sw { 0% { stroke-width: 3px; animation-timing-function: cubic-bezier(0,0,1,1); } 33.3333% { stroke-width: 0px; } 50% { stroke-width: 0px; animation-timing-function: steps(1); } 50.1042% { stroke-width: 3px; animation-timing-function: cubic-bezier(0,0,1,1); } 83.3333% { stroke-width: 0px; } 100% { stroke-width: 0px; } }
    </style>
    <g id="All" transform="translate(156.5,53) translate(-156.5,-53)">
        <g id="Mouse_Keyboard" transform="translate(24.1615,17.9811) scale(0.3,0.3)">
            <g id="Mouse">
                <path d="M134.875,52.502C134.875,27.551,114.618,7.294,89.667,7.294L50.917,7.294C25.966,7.294,5.708,27.551,5.708,52.502L5.708,161.045C5.708,196.614,34.586,225.492,70.155,225.492C105.875,225.492,134.875,196.492,134.875,160.772L134.875,52.502Z" fill="#ffcc47" fill-opacity="0.3"/>
                <path d="M134.875,52.502C134.875,27.551,114.618,7.294,89.667,7.294L50.917,7.294C25.966,7.294,5.708,27.551,5.708,52.502L5.708,161.045C5.708,196.614,34.586,225.492,70.155,225.492C105.875,225.492,134.875,196.492,134.875,160.772L134.875,52.502Z" fill="none" stroke="#ffcc47" stroke-width="8.33px"/>
                <path id="On" d="M65.754,32.36C60.176,32.556,55.708,37.146,55.708,42.77L55.708,67.77C55.708,73.396,60.178,77.986,65.757,78.181M1.542,104.39L1.542,48.335C1.542,23.384,21.799,3.127,46.75,3.127L65.752,3.127L65.758,104.428L1.542,104.39Z" fill="#ffcc47" clip-rule="evenodd" fill-rule="evenodd" stroke-linejoin="round" stroke-miterlimit="1.41421" opacity="0" transform="translate(4.158,4.17331) scale(1,0.9999)" style="animation: 0.96s linear infinite both On_o;"/>
                <path d="M7.341,108.595L132.838,108.595" fill="none" stroke="#ffcc47" stroke-width="8.33px"/>
                <path d="M69.961,7.639L69.961,34.02" fill="none" stroke="#ffcc47" stroke-width="8.33px"/>
                <path d="M69.961,83.875L69.961,108.595" fill="none" stroke="#ffcc47" stroke-width="8.33px"/>
                <path d="M80.708,46.937C80.708,41.188,76.041,36.52,70.292,36.52C64.543,36.52,59.875,41.188,59.875,46.937L59.875,71.937C59.875,77.686,64.543,82.354,70.292,82.354C76.041,82.354,80.708,77.686,80.708,71.937L80.708,46.937Z" fill="none" stroke="#ffcc47" stroke-width="8.33px"/>
            </g>
            <g id="Keys">
                <g id="Down-Button">
                    <path d="M776.358,135.932C776.358,130.96,772.322,126.924,767.351,126.924L695.066,126.924C690.095,126.924,686.059,130.96,686.059,135.932L686.059,208.216C686.059,213.188,690.095,217.224,695.066,217.224L767.351,217.224C772.322,217.224,776.358,213.188,776.358,208.216L776.358,135.932Z" fill="#ffcc47" fill-opacity="0.3"/>
                    <path d="M776.358,135.932C776.358,130.96,772.322,126.924,767.351,126.924L695.066,126.924C690.095,126.924,686.059,130.96,686.059,135.932L686.059,208.216C686.059,213.188,690.095,217.224,695.066,217.224L767.351,217.224C772.322,217.224,776.358,213.188,776.358,208.216L776.358,135.932Z" fill="none" stroke="#ffcc47" stroke-width="8.33px"/>
                    <path d="M731.208,189.158L719.168,160.385L743.248,160.385L731.208,189.158Z" fill="#ffcc47"/>
                </g>
                <g id="Up-Button">
                    <path d="M776.358,24.569C776.358,19.598,772.322,15.562,767.351,15.562L695.066,15.562C690.095,15.562,686.059,19.598,686.059,24.569L686.059,96.854C686.059,101.825,690.095,105.861,695.066,105.861L767.351,105.861C772.322,105.861,776.358,101.825,776.358,96.854L776.358,24.569Z" fill="#ffcc47" fill-opacity="0.3"/>
                    <path d="M776.358,24.569C776.358,19.598,772.322,15.562,767.351,15.562L695.066,15.562C690.095,15.562,686.059,19.598,686.059,24.569L686.059,96.854C686.059,101.825,690.095,105.861,695.066,105.861L767.351,105.861C772.322,105.861,776.358,101.825,776.358,96.854L776.358,24.569Z" fill="none" stroke="#ffcc47" stroke-width="8.33px"/>
                    <path d="M731.208,43.002L743.248,71.775L719.168,71.775L731.208,43.002Z" fill="#ffcc47"/>
                </g>
                <g id="Left-button">
                    <path d="M664.989,135.932C664.989,130.96,660.953,126.924,655.981,126.924L583.697,126.924C578.725,126.924,574.689,130.96,574.689,135.932L574.689,208.216C574.689,213.188,578.725,217.224,583.697,217.224L655.981,217.224C660.953,217.224,664.989,213.188,664.989,208.216L664.989,135.932Z" fill="#ffcc47" fill-opacity="1" opacity="0.3" style="animation: 0.96s linear infinite both a0_o;"/>
                    <path d="M664.989,135.932C664.989,130.96,660.953,126.924,655.981,126.924L583.697,126.924C578.725,126.924,574.689,130.96,574.689,135.932L574.689,208.216C574.689,213.188,578.725,217.224,583.697,217.224L655.981,217.224C660.953,217.224,664.989,213.188,664.989,208.216L664.989,135.932Z" fill="none" stroke="#ffcc47" stroke-width="8.33px"/>
                    <path id="left" d="M602.443,171.761L631.216,183.801L631.216,159.721L602.443,171.761Z" fill="#ffcc47" style="animation: 0.96s linear infinite both left_f;"/>
                </g>
                <g id="Right-Button">
                    <path d="M887.727,135.932C887.727,130.96,883.691,126.924,878.72,126.924L806.435,126.924C801.464,126.924,797.428,130.96,797.428,135.932L797.428,208.216C797.428,213.188,801.464,217.224,806.435,217.224L878.72,217.224C883.691,217.224,887.727,213.188,887.727,208.216L887.727,135.932Z" fill="#ffcc47" fill-opacity="1" opacity="1" style="animation: 0.96s linear infinite both a1_o;"/>
                    <path d="M887.727,135.932C887.727,130.96,883.691,126.924,878.72,126.924L806.435,126.924C801.464,126.924,797.428,130.96,797.428,135.932L797.428,208.216C797.428,213.188,801.464,217.224,806.435,217.224L878.72,217.224C883.691,217.224,887.727,213.188,887.727,208.216L887.727,135.932Z" fill="none" stroke="#ffcc47" stroke-width="8.33px"/>
                    <path id="Right" d="M859.974,171.761L831.201,183.801L831.201,159.721L859.974,171.761Z" fill="#000000" style="animation: 0.96s linear infinite both Right_f;"/>
                </g>
            </g>
            <path id="Divider" d="M380.086,66.288L380.086,166.497" fill="none" stroke="#ffcc47" stroke-opacity="0.5" stroke-width="10.27px"/>
        </g>
        <ellipse id="pulse" rx="4.5" ry="4.5" fill="none" stroke-miterlimit="1.41421" stroke-linejoin="round" stroke="#ffffff" opacity="0" stroke-width="3" transform="translate(36,36)" style="animation: 0.96s linear infinite both pulse_t, 0.96s linear infinite both pulse_o, 0.96s linear infinite both pulse_sw;"/>
        <ellipse id="pulse-2" rx="4.5" ry="4.5" fill="none" stroke-miterlimit="1.41421" stroke-linejoin="round" stroke="#ffffff" opacity="0" stroke-width="3" transform="translate(210,70)" style="animation: 0.96s linear infinite both pulse-2_t, 0.96s linear infinite both pulse-2_o, 0.96s linear infinite both pulse-2_sw;"/>
        <ellipse id="pulse-3" rx="4.5" ry="4.5" fill="none" stroke-miterlimit="1.41421" stroke-linejoin="round" stroke="#ffffff" opacity="0" stroke-width="3" transform="translate(277,70)" style="animation: 0.96s linear infinite both pulse-3_t, 0.96s linear infinite both pulse-3_o, 0.96s linear infinite both pulse-3_sw;"/>
    </g>
</svg>
